<svg width="24" height="24" viewBox="0 0 30 24" fill="none"
    xmlns="http://www.w3.org/2000/svg">
    <path d="M28.8345 13.6745H29.6121L29.6167 13.6769V16.4614H28.7104C28.0663 16.4614 27.4222 16.4619 26.7781 16.4625C25.4903 16.4635 24.2029 16.4645 22.9165 16.4614C22.3474 16.4591 21.8743 16.6137 21.6308 17.1781C21.3825 17.7518 21.6284 18.1874 22.0336 18.5856C22.7688 19.3106 23.4991 20.0405 24.2145 20.7557C24.4836 21.0246 24.7505 21.2914 25.0148 21.5551C24.7762 21.7911 24.5402 22.0244 24.3092 22.2528C23.7376 22.8178 23.196 23.3532 22.7174 23.8268C22.3797 23.5108 22.034 23.1906 21.6838 22.8663C20.7129 21.9671 19.7068 21.0352 18.7361 20.068C18.4772 19.8091 18.3538 19.3961 18.2377 19.0076C18.2173 18.9392 18.1971 18.8716 18.1764 18.8057C18.0804 18.4966 18.0663 18.1523 18.0663 17.8244C18.0633 16.1267 18.0633 14.4285 18.0634 12.7302C18.0635 10.5467 18.0636 8.36318 18.057 6.18035C18.0546 5.31384 18.3427 4.59487 18.9352 3.96489C19.8287 3.01576 20.7137 2.05814 21.5928 1.10688C21.9349 0.736663 22.2762 0.367413 22.6167 0L22.6921 0.0756115C23.4756 0.861415 24.2352 1.62315 25.0453 2.43327C25.0119 2.46822 24.9756 2.50722 24.937 2.54861C24.8619 2.62924 24.7783 2.71897 24.6917 2.80563L21.961 5.53632C21.5886 5.90869 21.3895 6.34195 21.605 6.85717C21.8181 7.36771 22.2724 7.44734 22.7713 7.44734C23.5738 7.44464 24.3764 7.4454 25.1789 7.44616C26.463 7.44738 27.7472 7.4486 29.0313 7.43563C29.5067 7.43094 29.7081 7.55507 29.6659 8.0539C29.6284 8.48013 29.6261 8.91339 29.6659 9.33962C29.7174 9.89231 29.5394 10.0867 28.9587 10.075C27.7752 10.0516 26.5917 10.0552 25.4083 10.0589C24.8166 10.0607 24.2248 10.0625 23.6331 10.0609C23.0265 10.0609 22.4551 10.1616 22.0289 10.6277C21.5254 11.1734 21.3731 11.8197 21.6565 12.52C21.9563 13.2624 22.5394 13.6581 23.3333 13.6675C24.6577 13.681 25.9821 13.6787 27.3065 13.6763C27.8159 13.6754 28.3252 13.6745 28.8345 13.6745Z" fill="#FBCB4A"/>
    <path d="M5.44329 21.1962C5.32251 21.317 5.20213 21.4374 5.08218 21.5574L5.08687 21.555C5.67716 22.1437 6.24334 22.7082 6.80953 23.2728C7.05201 23.5145 7.29449 23.7563 7.53887 24C7.81986 23.7178 8.10328 23.4318 8.38895 23.1436C9.19135 22.3341 10.0115 21.5066 10.8457 20.6932C11.663 19.8946 12.0401 18.9297 12.0401 17.8079C12.0411 16.1438 12.0408 14.4797 12.0405 12.8156C12.0401 10.5968 12.0397 8.37799 12.0424 6.15918C12.0447 5.295 11.745 4.56432 11.1478 3.94371C10.8583 3.64201 10.5747 3.33337 10.2913 3.02489C10.1391 2.85924 9.98696 2.69364 9.83396 2.52918C9.52588 2.19929 9.2178 1.86976 8.91479 1.54564C8.43693 1.0345 7.97168 0.536838 7.53887 0.0724992C6.70748 0.901543 5.91357 1.69311 5.09389 2.50811C5.37876 2.79227 5.66742 3.08086 5.95894 3.37231C6.63806 4.05126 7.33264 4.74568 8.03067 5.43552C8.42646 5.82662 8.72622 6.24817 8.49203 6.83131C8.26018 7.40508 7.75667 7.44724 7.22505 7.44724C5.53331 7.44138 3.84319 7.44366 2.15199 7.44594C1.81339 7.44639 1.47474 7.44685 1.13603 7.44724C0.991932 7.44724 0.847834 7.45686 0.688937 7.46747C0.599919 7.47341 0.506257 7.47966 0.405348 7.48471C0.405348 7.69443 0.407449 7.8989 0.409511 8.09962C0.414334 8.56911 0.418947 9.01812 0.39598 9.46598C0.372561 9.92266 0.524786 10.0749 0.988488 10.0702C2.78475 10.0491 4.57867 10.0538 6.37493 10.0702C6.73793 10.0749 7.12434 10.11 7.45924 10.2388C8.25081 10.5433 8.6911 11.3793 8.54121 12.1709C8.37494 13.0468 7.6466 13.6627 6.70748 13.6697C5.46631 13.6798 4.22634 13.6779 2.98585 13.676C2.48958 13.6752 1.99323 13.6744 1.49669 13.6744H0.445161V16.459H1.12432C1.79507 16.459 2.46555 16.4595 3.13586 16.46C4.47597 16.4611 5.81538 16.4621 7.15479 16.459C7.74496 16.4566 8.23676 16.6136 8.47564 17.2131C8.70983 17.7986 8.43583 18.2225 8.03535 18.6159C7.15996 19.479 6.29175 20.3475 5.44329 21.1962Z" fill="#FBCB4A"/>
</svg>



