<svg width="24" height="24" viewBox="0 0 24 24" fill="none" xmlns="http://www.w3.org/2000/svg">
<path d="M12.5379 0.00958489C18.1052 0.227659 22.859 4.40857 23.8268 9.96043C23.9936 10.9175 24.0409 11.8856 23.9644 12.8621C23.9283 13.3468 23.7406 13.4316 23.3068 13.3371C22.752 13.2163 22.2055 13.0635 21.7092 12.7982C18.5098 11.0883 15.8694 8.66727 14.9072 5.06974C14.8911 5.01172 14.8762 4.95313 14.8613 4.89471C14.853 4.86228 14.8447 4.82969 14.8363 4.79749C14.8012 4.66811 14.7913 4.5203 14.7814 4.37275C14.76 4.05302 14.7387 3.73447 14.4609 3.60711C14.0611 3.42365 13.5856 3.47173 13.1236 3.51844C13.012 3.52973 12.9012 3.54094 12.7924 3.54877C12.481 3.57091 12.5002 3.81393 12.517 4.02532C12.5202 4.06594 12.5234 4.10539 12.524 4.14188C12.5429 5.12353 12.5682 6.10468 12.5934 7.08564C12.6108 7.76339 12.6283 8.44104 12.6436 9.11869C12.6564 9.68522 12.667 10.2519 12.6775 10.8186C12.6979 11.911 12.7182 13.0036 12.7548 14.0955C12.7715 14.5886 12.613 14.7956 12.1166 14.7303C11.9623 14.7094 11.8024 14.7122 11.6467 14.7261C11.2017 14.7678 11.0557 14.5817 11.046 14.1316C11.0049 12.1114 10.9462 10.0912 10.8874 8.07099C10.8706 7.49375 10.8538 6.91652 10.8374 6.33929C10.8288 6.03517 10.8187 5.73105 10.8085 5.42694C10.7926 4.94904 10.7767 4.47115 10.7665 3.99326C10.761 3.68907 10.6428 3.52377 10.3244 3.52933C10.2197 3.53118 10.1157 3.52933 10.0115 3.52748C9.9592 3.52655 9.90689 3.52563 9.85441 3.52516C8.90843 3.51697 8.90729 3.52086 8.64457 4.41994L8.63084 4.46691C7.44481 8.51725 5.18537 11.4217 1.39646 13.251C1.01131 13.4371 0.615043 13.626 0.0936341 13.6635C-0.0648743 12.1245 -0.0426268 10.641 0.320274 9.17287C1.69818 3.58906 6.77462 -0.216823 12.5379 0.00958489Z" fill="#FBCB4A"/>
<path d="M8.61421 17.0943C12.8049 16.3373 16.979 17.3013 20.7053 19.1848C21.2949 19.482 21.3116 19.5862 20.8638 20.0807C19.1036 22.0267 16.6439 23.2949 14.0744 23.7657C9.7488 24.5575 6.29915 23.3365 3.21936 20.1863C3.15402 20.1182 3.09145 20.0487 3.03305 19.9751C3.00924 19.9443 2.98934 19.9101 2.95492 19.851C2.93507 19.8168 2.91037 19.7744 2.87732 19.7195C4.71268 18.3528 6.42568 17.4902 8.61421 17.0943Z" fill="#FBCB4A"/>
<path d="M3.8936 16.3888C5.42307 15.7471 6.72172 15.2081 8.38745 14.9748C8.77399 14.9206 8.92416 14.6928 8.92555 14.3345C8.92694 12.8111 8.92694 11.2891 8.92694 9.76981V9.76045C8.92694 9.66877 8.80458 9.63822 8.76148 9.71878C8.09408 10.9758 5.83603 13.4205 4.11746 14.2914C4.10495 14.2969 4.09382 14.3039 4.0827 14.3122C3.03988 15.079 3.04127 15.0845 3.59327 16.3055C3.59744 16.3138 3.60161 16.3221 3.60857 16.3291C3.67392 16.4124 3.79488 16.4291 3.8936 16.3888Z" fill="#FBCB4A"/>
<path d="M20.3925 16.3888C18.8616 15.7471 17.0068 15.2082 15.3425 14.9748C14.9559 14.9192 14.8058 14.6914 14.8058 14.3345C14.8037 13.1892 14.8039 12.0448 14.8042 10.9017C14.8043 10.5211 14.8044 10.1407 14.8044 9.76047C14.8044 9.66741 14.9267 9.63685 14.9698 9.7188C15.6372 10.9772 18.4515 13.4205 20.17 14.2914C20.1825 14.297 20.1937 14.3039 20.2048 14.3122C21.2476 15.0776 21.2462 15.0845 20.6942 16.3055C20.69 16.3138 20.6845 16.3221 20.6789 16.3291C20.6122 16.4138 20.4912 16.4305 20.3925 16.3888Z" fill="#FBCB4A"/>
</svg>
